# xmcd
#
# Track frame offsets:
#	150
#	11633
#	22066
#	32842
#	45822
#	56255
#	68436
#	78072
#	86509
#	97514
#	106543
#	116471
#	127539
#	139790
#	149751
#	162496
#	174416
#	183542
#	195511
#	204600
#	213997
#	223944
#	233139
#	242971
#	253185
#	264931
#	274222
#	283235
#	298752
#	308833
#
# Disc length: 4238 seconds
#
# Revision: 1
# Processed by: cddbd v1.5.2PL0 Copyright (c) Steve Scherf et al.
# Submitted via: audiograbber 1.83.01
#
DISCID=a6108c1e
DTITLE=Tommy Collins - Leonard - CD 4
DYEAR=1992
DGENRE=Country
TTITLE0=If I Could Just Go Back
TTITLE1=I Got Mine
TTITLE2=You'd Better Be Nice
TTITLE3=I Can Do That
TTITLE4=I Got Mine
TTITLE5=Shindig In The Barn
TTITLE6=A Million Miles
TTITLE7=Goody Goody Gumdrop
TTITLE8=The Clock On The Wall
TTITLE9=The Bee That Gets The Honey
TTITLE10=It's A Big Jump
TTITLE11=It's A Pretty Good Ol' World After All
TTITLE12=Don't Let Me Stand In His Footsteps
TTITLE13=All Of The Monkeys Ain't In The Zoo
TTITLE14=Black Cat [stereo remix]
TTITLE15=Take Me Back To The Good Old Days [with chorus]
TTITLE16=Oh, What A Dream [without chorus]
TTITLE17=Klippa Kloppa (Goody Goody Gumdrop)
TTITLE18=If You Can't Bite, Don't Growl
TTITLE19=A Man Gotta Do What A Man Gotta Do
TTITLE20=Man Machine
TTITLE21=The Girl On Sugar Pie Land
TTITLE22=Poor, Broke, Mixed Up Mess Of A Heart
TTITLE23=Be Serious, Ann
TTITLE24=The Fool's Castle
TTITLE25=A Little Time For A Little Love
TTITLE26=I'm Not Gettin' Anywhere With You
TTITLE27=The Two Sides Of Life
TTITLE28=You're Everything To Me
TTITLE29=A Million Miles
EXTD=
EXTT0=
EXTT1=
EXTT2=
EXTT3=
EXTT4=
EXTT5=
EXTT6=
EXTT7=
EXTT8=
EXTT9=
EXTT10=
EXTT11=
EXTT12=
EXTT13=
EXTT14=
EXTT15=
EXTT16=
EXTT17=
EXTT18=
EXTT19=
EXTT20=
EXTT21=
EXTT22=
EXTT23=
EXTT24=
EXTT25=
EXTT26=
EXTT27=
EXTT28=
EXTT29=
PLAYORDER=
